IKResults
version=1
nRows=13
nColumns=40
inDegrees=yes

Units are S.I. units (second, meters, Newtons, ...)
Angles are in degrees.

endheader
time	pelvis_tilt	pelvis_list	pelvis_rotation	pelvis_tx	pelvis_ty	pelvis_tz	hip_flexion_r	hip_adduction_r	hip_rotation_r	knee_angle_r	knee_angle_r_beta	ankle_angle_r	subtalar_angle_r	mtp_angle_r	hip_flexion_l	hip_adduction_l	hip_rotation_l	knee_angle_l	knee_angle_l_beta	ankle_angle_l	subtalar_angle_l	mtp_angle_l	lumbar_extension	lumbar_bending	lumbar_rotation	arm_flex_r	arm_add_r	arm_rot_r	elbow_flex_r	pro_sup_r	wrist_flex_r	wrist_dev_r	arm_flex_l	arm_add_l	arm_rot_l	elbow_flex_l	pro_sup_l	wrist_flex_l	wrist_dev_l
      0.00000000	     15.68162460	     -4.97991408	      3.36888476	     -1.02155326	      0.95023197	     -0.97695060	    -14.67397387	      7.64509667	    -23.09163636	     -8.84129780	     -0.15430976	      6.45322848	     12.39493264	     -1.56266155	    -10.43981699	      9.07533248	      8.65491690	    -40.95137444	     -0.71473632	     11.73905756	     17.62242487	      1.70836706	    -24.20119592	      8.02871714	     -1.48162445	      2.97691616	    -11.47158976	      1.56853508	     21.79832483	     89.95437384	      0.00000000	      0.00000000	     10.29549082	      9.00737421	     -1.12163880	     43.33944921	     89.95437384	      0.00000000	      0.00000000
      0.01000000	     15.64956174	     -4.80264588	      3.36245643	     -1.01766232	      0.95043918	     -0.97630204	    -14.95112832	      7.53308490	    -23.09036145	     -8.76061643	     -0.15290160	      6.54103847	     12.50542287	     -1.98387267	     -9.55210383	      8.77522736	      8.33216234	    -40.42821479	     -0.70560546	     13.10644605	     17.40846000	      2.80545989	    -24.20416770	      7.84936007	     -1.44091028	      3.04885837	    -11.56803025	      1.80445397	     22.22444126	     89.95437384	      0.00000000	      0.00000000	     10.06881170	      8.85585046	     -0.77424469	     42.39744272	     89.95437384	      0.00000000	      0.00000000
      0.02000000	     15.79406852	     -4.60187949	      3.15731384	     -1.01363902	      0.95092163	     -0.97539625	    -15.50997587	      7.38542864	    -22.79711366	     -8.53053312	     -0.14888589	      6.56740303	     12.49682895	     -2.06971098	     -8.97453582	      8.52056406	      8.54286441	    -39.77911126	     -0.69427646	     13.53188651	     17.36896545	      3.11629158	    -24.41694043	      7.55665124	     -1.20240610	      3.13318513	    -11.63726477	      1.87466860	     22.59612850	     89.95437384	      0.00000000	      0.00000000	      9.87193859	      8.70627705	     -0.37554405	     41.37286939	     89.95437384	      0.00000000	      0.00000000
      0.03000000	     15.80243923	     -4.35358497	      2.99460850	     -1.00976073	      0.95114819	     -0.97463657	    -15.82206590	      7.11925918	    -22.85917723	     -8.51961965	     -0.14869541	      6.81669980	     12.71816967	     -2.12222053	     -8.21624904	      8.15889726	      8.59476465	    -39.10114835	     -0.68244378	     13.86438633	     17.37461748	      3.29940654	    -24.48523887	      7.23476003	     -0.99690731	      3.14118539	    -11.71425452	      1.87670879	     23.11747402	     89.95437384	      0.00000000	      0.00000000	      9.65366134	      8.56672842	      0.02895674	     40.32768164	     89.95437384	      0.00000000	      0.00000000
      0.04000000	     15.79485865	     -4.16584142	      2.91051791	     -1.00592898	      0.95133433	     -0.97396305	    -16.13538446	      6.96001860	    -22.88811679	     -8.44374086	     -0.14737108	      6.97827057	     12.82765807	     -2.14881529	     -7.39423484	      7.88694301	      8.64556460	    -38.44231497	     -0.67094497	     14.18193930	     17.30313370	      3.40968750	    -24.53726209	      7.00089530	     -0.86411429	      3.18174348	    -11.80328391	      2.13243317	     23.53884139	     89.95437384	      0.00000000	      0.00000000	      9.51644691	      8.37049085	      0.55138724	     39.06013428	     89.95437384	      0.00000000	      0.00000000
      0.05000000	     15.78987837	     -3.98141992	      2.76245763	     -1.00211589	      0.95153989	     -0.97325093	    -16.48452290	      6.80854544	    -22.72461531	     -8.29602606	     -0.14479297	      7.12657247	     12.80096435	     -2.15842268	     -6.61052846	      7.62495646	      8.87100610	    -37.72174018	     -0.65836857	     14.41418141	     17.11554038	      3.46366929	    -24.60435498	      6.74528986	     -0.66898777	      3.19866367	    -11.87134673	      2.07368706	     24.06327532	     89.95437384	      0.00000000	      0.00000000	      9.35291983	      8.19341772	      1.08420013	     37.76749987	     89.95437384	      0.00000000	      0.00000000
      0.06000000	     15.78938294	     -3.84204763	      2.60206418	     -0.99845740	      0.95172163	     -0.97247042	    -16.85088853	      6.71833531	    -22.53937877	     -8.07652066	     -0.14096188	      7.21566443	     12.61362466	     -2.12722800	     -5.82558967	      7.40693655	      9.11158666	    -36.97158818	     -0.64527594	     14.62745227	     16.87375286	      3.43538503	    -24.71090391	      6.51265587	     -0.41681654	      3.24942786	    -11.95948277	      2.19814086	     24.50670979	     89.95437384	      0.00000000	      0.00000000	      9.21007948	      8.04010987	      1.62792523	     36.48690409	     89.95437384	      0.00000000	      0.00000000
      0.07000000	     15.74210974	     -3.67219976	      2.59377826	     -0.99488851	      0.95173819	     -0.97193757	    -17.13855830	      6.65276772	    -22.35794670	     -7.89983512	     -0.13787813	      7.38473666	     12.25335085	     -2.09158908	     -4.93629519	      7.14364385	      9.15945059	    -36.25004208	     -0.63268259	     14.74679966	     16.65934168	      3.27998322	    -24.74133411	      6.31163807	     -0.37126769	      3.32058512	    -12.01324255	      2.34684849	     24.94881760	     89.95437384	      0.00000000	      0.00000000	      9.05602936	      7.94364245	      2.12311405	     35.11935029	     89.95437384	      0.00000000	      0.00000000
      0.08000000	     15.82573255	     -3.44925817	      2.26786831	     -0.99071219	      0.95198059	     -0.97127959	    -17.60996864	      6.37496367	    -22.19926060	     -7.76142426	     -0.13546241	      7.53629615	     12.36746706	     -2.17422291	     -4.41874022	      6.83131836	      9.73413784	    -35.31259791	     -0.61632110	     14.68003601	     16.32123143	      3.03335625	    -24.88181099	      5.95390188	     -0.02297021	      3.27174618	    -12.16083196	      2.61942870	     25.47708163	     89.95437384	      0.00000000	      0.00000000	      8.85179190	      7.72804076	      2.86824500	     33.67459110	     89.95437384	      0.00000000	      0.00000000
      0.09000000	     15.70822307	     -3.26431583	      2.19936921	     -0.98725988	      0.95187384	     -0.97070590	    -17.71563485	      6.21258447	    -22.23791547	     -7.75691972	     -0.13538379	      7.85514993	     12.25529488	     -2.21892957	     -3.28186872	      6.49707081	      9.61371159	    -34.84806715	     -0.60821351	     14.46582873	     15.74936502	      2.94118134	    -24.88164429	      5.69869936	      0.05182294	      3.40032508	    -12.18790655	      2.76900510	     25.82442312	     89.95437384	      0.00000000	      0.00000000	      8.60605934	      7.76461526	      3.13011314	     32.45443608	     89.95437384	      0.00000000	      0.00000000
      0.10000000	     15.66630263	     -3.03389365	      2.06317936	     -0.98359073	      0.95188157	     -0.97031759	    -17.92820452	      5.94395194	    -22.23413728	     -7.80468721	     -0.13621749	      8.08485438	     12.37089140	     -2.29274756	     -2.57337822	      6.09114351	      9.75661785	    -33.85254027	     -0.59083829	     14.26971627	     15.00294169	      2.73450166	    -24.93452815	      5.39072157	      0.24658026	      3.37815195	    -12.33458777	      3.16292503	     26.33393050	     89.95437384	      0.00000000	      0.00000000	      8.55723799	      7.55242222	      4.05023788	     30.83123008	     89.95437384	      0.00000000	      0.00000000
      0.11000000	     15.73694261	     -2.85372796	      1.87579532	     -0.97970346	      0.95202465	     -0.96994768	    -18.31707883	      5.71110489	    -22.29277405	     -7.75083557	     -0.13527760	      8.25995752	     12.58422712	     -2.36902783	     -2.06128313	      5.76565702	     10.08718186	    -32.76759820	     -0.57190248	     14.00659727	     14.15568678	      2.45553336	    -25.08231213	      5.12126037	      0.39095983	      3.45687849	    -12.45368131	      3.50079820	     26.73223517	     89.95437384	      0.00000000	      0.00000000	      8.32486735	      7.43795162	      4.88508919	     29.37602591	     89.95437384	      0.00000000	      0.00000000
      0.12000000	     15.59859779	     -2.81459455	      1.84099029	     -0.97602656	      0.95169109	     -0.96945997	    -18.39627515	      5.69850424	    -22.24345070	     -7.81256135	     -0.13635492	      8.49101302	     12.51597631	     -2.40191656	     -1.10697238	      5.62861587	     10.16089416	    -32.05634179	     -0.55948871	     13.62751953	     13.55489428	      2.33420957	    -25.02095413	      5.00491403	      0.43875048	      3.58325251	    -12.46857439	      3.65572753	     27.03160813	     89.95437384	      0.00000000	      0.00000000	      7.91620847	      7.53116049	      5.16306887	     28.28761459	     89.95437384	      0.00000000	      0.00000000
